#!OML:ASF C:\ViconDB\ViconDB\414\Spring2016\041811\Spring2016.ASF
:FULLY-SPECIFIED
:DEGREES
243
root 9.41268 18.5681 -10.4379 353.585 64.1531 352.319
lowerback -1.97718 2.72383 -5.91535
upperback -2.00403 3.73902 -3.68942
thorax -1.08677 1.94217 -0.458464
lowerneck -10.495 -5.25984 -16.1617
upperneck 27.5298 -9.51587 21.8199
head 12.7876 -3.37051 10.3321
rclavicle -9.54166e-015 1.27222e-014
rhumerus -26.1781 -18.8578 -5.91388
rradius 29.6082
rwrist 42.2322
rhand -26.7042 -11.9404
rfingers 7.12502
rthumb -0.13439 -41.9201
lclavicle -9.54166e-015 1.27222e-014
lhumerus -37.7805 -14.3736 12.5468
lradius 24.3009
lwrist -8.81742
lhand -27.9029 21.2134
lfingers 7.12502
lthumb -1.29218 51.1892
rfemur -52.7131 -204.144 -0.486522
rtibia 34.7701
rfoot -11.5176 -66.0803
rtoes -26.7847
lfemur -20.1307 7.53547 -11.4997
ltibia 45.2651
lfoot -17.7979 16.2859
ltoes -18.5445
244
root 9.34779 18.6672 -10.4333 355.886 60.4137 354.404
lowerback -2.86349 3.17915 -5.79955
upperback -2.14913 4.41519 -3.96317
thorax -0.734147 2.27333 -0.749703
lowerneck -10.7171 -5.07155 -16.1478
upperneck 27.6142 -9.21181 21.6859
head 12.7782 -3.24489 10.3179
rclavicle 1.5704e-014 4.29375e-014
rhumerus -25.021 -20.709 -6.27549
rradius 28.9508
rwrist 43.8105
rhand -27.0276 -11.3329
rfingers 7.12502
rthumb -0.446719 -41.3122
lclavicle 1.5704e-014 4.29375e-014
lhumerus -38.454 -12.8065 12.0017
lradius 24.1914
lwrist -8.73497
lhand -27.81 21.3633
lfingers 7.12502
lthumb -1.20245 51.3396
rfemur -51.9359 -205.435 -1.25373
rtibia 34.6764
rfoot -10.9487 -64.0907
rtoes -23.0557
lfemur -19.5066 6.64724 -11.507
ltibia 44.7788
lfoot -16.1759 17.1597
ltoes -20.3862
245
root 9.2656 18.7542 -10.4204 356.275 56.2136 354.987
lowerback -3.01504 3.76204 -5.14654
upperback -2.26003 5.17972 -4.11881
thorax -0.7133 2.64667 -1.24928
lowerneck -10.8278 -4.87674 -15.8573
upperneck 27.707 -8.97632 21.56
head 12.7513 -3.12183 10.242
rclavicle 2.97183e-014 -3.18055e-014
rhumerus -23.9835 -22.4522 -7.11437
rradius 28.6926
rwrist 45.2365
rhand -27.1038 -11.5913
rfingers 7.12502
rthumb -0.520316 -41.5704
lclavicle 2.97183e-014 -3.18055e-014
lhumerus -39.2842 -11.8362 11.3244
lradius 24.1675
lwrist -8.06328
lhand -27.5208 21.5527
lfingers 7.12502
lthumb -0.923103 51.5304
rfemur -51.3184 -205.786 -1.15374
rtibia 34.5527
rfoot -9.79587 -62.135
rtoes -20.1077
lfemur -18.3051 5.8732 -10.5132
ltibia 44.4175
lfoot -14.4341 16.8657
ltoes -20.5041
246
root 9.18157 18.8222 -10.4058 357.119 51.8186 355.825
lowerback -3.41568 4.36509 -4.78937
upperback -2.44819 5.99238 -4.25958
thorax -0.645149 3.04789 -1.54995
lowerneck -11.035 -4.65142 -15.6572
upperneck 27.9102 -8.66155 21.3778
head 12.7736 -2.97382 10.1832
rclavicle -8.14023e-014 3.97569e-014
rhumerus -22.7346 -23.1733 -8.10319
rradius 28.4989
rwrist 45.6456
rhand -26.9846 -11.7545
rfingers 7.12502
rthumb -0.405219 -41.7339
lclavicle -8.14023e-014 3.97569e-014
lhumerus -40.1991 -10.8352 10.6555
lradius 24.0026
lwrist -7.49991
lhand -27.428 21.6405
lfingers 7.12502
lthumb -0.833466 51.6186
rfemur -50.3061 -205.928 -1.17776
rtibia 34.3555
rfoot -8.33656 -60.4761
rtoes -19.1209
lfemur -17.3524 5.19035 -9.71574
ltibia 44.2115
lfoot -12.2777 15.138
ltoes -20.6984
247
root 9.08717 18.8725 -10.3987 357.739 47.3956 356.512
lowerback -3.52298 4.94229 -4.52576
upperback -2.64308 6.74774 -4.37762
thorax -0.748109 3.42332 -1.79897
lowerneck -11.3104 -4.43975 -15.3635
upperneck 28.1218 -8.36106 21.1074
head 12.8102 -2.82879 10.0637
rclavicle -1.14202e-013 -3.33958e-014
rhumerus -21.3711 -24.0223 -9.17476
rradius 28.2367
rwrist 46.1569
rhand -26.9826 -11.7111
rfingers 7.12502
rthumb -0.403297 -41.6904
lclavicle -1.14202e-013 -3.33958e-014
lhumerus -41.2303 -10.0695 9.88144
lradius 23.686
lwrist -8.32578
lhand -26.7722 21.7794
lfingers 7.12502
lthumb -0.200051 51.759
rfemur -49.2769 -205.844 -1.10703
rtibia 34.0271
rfoot -5.23137 -59.47
rtoes -16.8625
lfemur -16.4351 3.95071 -8.80311
ltibia 44.1783
lfoot -10.3266 12.8525
ltoes -20.657
248
root 8.97479 18.8977 -10.3978 358.461 42.7802 357.235
lowerback -3.77866 5.52414 -4.53218
upperback -2.77187 7.53003 -4.4814
thorax -0.727824 3.8128 -1.86568
lowerneck -11.6561 -4.1822 -15.2182
upperneck 28.2248 -8.01315 21.1103
head 12.8317 -2.64959 10.098
rclavicle -1.10524e-013 -3.65764e-014
rhumerus -19.8183 -24.6731 -10.4098
rradius 28.0713
rwrist 46.4997
rhand -26.9302 -11.8734
rfingers 7.12502
rthumb -0.352627 -41.8528
lclavicle -1.10524e-013 -3.65764e-014
lhumerus -42.2131 -9.11514 9.00632
lradius 23.1952
lwrist -8.64935
lhand -26.4412 21.6576
lfingers 7.12502
lthumb 0.119614 51.6373
rfemur -47.9442 -205.516 -1.01061
rtibia 33.6179
rfoot -2.55285 -59.2037
rtoes -17.2193
lfemur -15.6848 2.68283 -7.90489
ltibia 44.2626
lfoot -8.27727 9.16802
ltoes -19.9361
249
root 8.85909 18.9061 -10.4137 359.352 38.1294 357.885
lowerback -3.8996 6.04494 -4.59234
upperback -3.06234 8.21349 -4.60581
thorax -0.952361 4.15808 -1.95242
lowerneck -12.134 -4.0179 -14.6316
upperneck 28.3547 -7.74551 20.5227
head 12.8612 -2.51523 9.7601
rclavicle 2.10314e-013 -2.06736e-014
rhumerus -18.1017 -25.0516 -11.7707
rradius 27.9808
rwrist 46.4704
rhand -26.9249 -11.5617
rfingers 7.12502
rthumb -0.347557 -41.5412
lclavicle 2.10314e-013 -2.06736e-014
lhumerus -43.5508 -8.5681 8.15391
lradius 22.9594
lwrist -8.86755
lhand -25.9189 21.7327
lfingers 7.12502
lthumb 0.624071 51.7115
rfemur -46.2526 -205.235 -0.909435
rtibia 33.1631
rfoot -1.16331 -59.2491
rtoes -20.451
lfemur -15.2883 1.41277 -7.13358
ltibia 44.434
lfoot -6.07436 4.93375
ltoes -19.6841
